<?xml version="1.0" encoding="UTF-8" standalone="no"?>
<!DOCTYPE svg PUBLIC "-//W3C//DTD SVG 1.1//EN"
 "http://www.w3.org/Graphics/SVG/1.1/DTD/svg11.dtd">
<!-- Generated by graphviz version 2.38.0 (20140413.2041)
 -->
<!-- Title: G Pages: 1 -->
<svg width="669pt" height="284pt"
 viewBox="0.00 0.00 669.28 284.00" xmlns="http://www.w3.org/2000/svg" xmlns:xlink="http://www.w3.org/1999/xlink">
<g id="graph0" class="graph" transform="scale(1 1) rotate(0) translate(4 280)">
<title>G</title>
<polygon fill="white" stroke="none" points="-4,4 -4,-280 665.276,-280 665.276,4 -4,4"/>
<g id="clust1" class="cluster"><title>cluster_Global</title>
<path fill="none" stroke="gray" d="M326.276,-8C326.276,-8 641.276,-8 641.276,-8 647.276,-8 653.276,-14 653.276,-20 653.276,-20 653.276,-256 653.276,-256 653.276,-262 647.276,-268 641.276,-268 641.276,-268 326.276,-268 326.276,-268 320.276,-268 314.276,-262 314.276,-256 314.276,-256 314.276,-20 314.276,-20 314.276,-14 320.276,-8 326.276,-8"/>
<text text-anchor="middle" x="483.776" y="-255.2" font-family="Times,serif" font-size="11.00" fill="gray">Global</text>
</g>
<g id="clust2" class="cluster"><title>cluster_\App</title>
<path fill="none" stroke="gray" d="M334.276,-16C334.276,-16 633.276,-16 633.276,-16 639.276,-16 645.276,-22 645.276,-28 645.276,-28 645.276,-228 645.276,-228 645.276,-234 639.276,-240 633.276,-240 633.276,-240 334.276,-240 334.276,-240 328.276,-240 322.276,-234 322.276,-228 322.276,-228 322.276,-28 322.276,-28 322.276,-22 328.276,-16 334.276,-16"/>
<text text-anchor="middle" x="483.776" y="-227.2" font-family="Times,serif" font-size="11.00" fill="gray">App</text>
</g>
<g id="clust3" class="cluster"><title>cluster_\App\Http</title>
<path fill="none" stroke="gray" d="M342.276,-24C342.276,-24 625.276,-24 625.276,-24 631.276,-24 637.276,-30 637.276,-36 637.276,-36 637.276,-200 637.276,-200 637.276,-206 631.276,-212 625.276,-212 625.276,-212 342.276,-212 342.276,-212 336.276,-212 330.276,-206 330.276,-200 330.276,-200 330.276,-36 330.276,-36 330.276,-30 336.276,-24 342.276,-24"/>
<text text-anchor="middle" x="483.776" y="-199.2" font-family="Times,serif" font-size="11.00" fill="gray">Http</text>
</g>
<g id="clust4" class="cluster"><title>cluster_\App\Http\Controllers</title>
<path fill="none" stroke="gray" d="M350.276,-32C350.276,-32 617.276,-32 617.276,-32 623.276,-32 629.276,-38 629.276,-44 629.276,-44 629.276,-172 629.276,-172 629.276,-178 623.276,-184 617.276,-184 617.276,-184 350.276,-184 350.276,-184 344.276,-184 338.276,-178 338.276,-172 338.276,-172 338.276,-44 338.276,-44 338.276,-38 344.276,-32 350.276,-32"/>
<text text-anchor="middle" x="483.776" y="-171.2" font-family="Times,serif" font-size="11.00" fill="gray">Controllers</text>
</g>
<g id="clust5" class="cluster"><title>cluster_\App\Http\Controllers\Auth</title>
<path fill="none" stroke="gray" d="M506.276,-40C506.276,-40 609.276,-40 609.276,-40 615.276,-40 621.276,-46 621.276,-52 621.276,-52 621.276,-100 621.276,-100 621.276,-106 615.276,-112 609.276,-112 609.276,-112 506.276,-112 506.276,-112 500.276,-112 494.276,-106 494.276,-100 494.276,-100 494.276,-52 494.276,-52 494.276,-46 500.276,-40 506.276,-40"/>
<text text-anchor="middle" x="557.776" y="-99.2" font-family="Times,serif" font-size="11.00" fill="gray">Auth</text>
</g>
<!-- \\App\\Http\\Controllers\\Auth\\AuthController -->
<g id="node1" class="node"><title>\\App\\Http\\Controllers\\Auth\\AuthController</title>
<polygon fill="none" stroke="black" points="613.276,-84 502.276,-84 502.276,-48 613.276,-48 613.276,-84"/>
<text text-anchor="middle" x="557.776" y="-63.2" font-family="Courier,monospace" font-size="11.00">AuthController</text>
</g>
<!-- \\Laravel\\Lumen\\Routing\\Controller -->
<g id="node4" class="node"><title>\\Laravel\\Lumen\\Routing\\Controller</title>
<ellipse fill="none" stroke="black" cx="137.138" cy="-101" rx="137.276" ry="18"/>
<text text-anchor="middle" x="137.138" y="-97.3" font-family="Times,serif" font-size="14.00" fill="gray">\Laravel\Lumen\Routing\Controller</text>
</g>
<!-- \\App\\Http\\Controllers\\Auth\\AuthController&#45;&gt;\\Laravel\\Lumen\\Routing\\Controller -->
<g id="edge2" class="edge"><title>\\App\\Http\\Controllers\\Auth\\AuthController&#45;&gt;\\Laravel\\Lumen\\Routing\\Controller</title>
<path fill="none" stroke="black" d="M501.875,-70.4859C452.722,-74.5121 378.683,-80.6016 314.276,-86 297.658,-87.3928 280.16,-88.8702 262.903,-90.3334"/>
<polygon fill="none" stroke="black" points="262.447,-86.8594 252.779,-91.1925 263.039,-93.8343 262.447,-86.8594"/>
</g>
<!-- \\App\\Http\\Controllers\\Controller -->
<g id="node2" class="node"><title>\\App\\Http\\Controllers\\Controller</title>
<polygon fill="none" stroke="black" points="430.276,-149 346.276,-149 346.276,-113 430.276,-113 430.276,-149"/>
<text text-anchor="middle" x="388.276" y="-128.2" font-family="Courier,monospace" font-size="11.00">Controller</text>
</g>
<!-- \\App\\Http\\Controllers\\Controller&#45;&gt;\\Laravel\\Lumen\\Routing\\Controller -->
<g id="edge1" class="edge"><title>\\App\\Http\\Controllers\\Controller&#45;&gt;\\Laravel\\Lumen\\Routing\\Controller</title>
<path fill="none" stroke="black" d="M346.136,-126.046C319.531,-122.843 283.53,-118.507 248.959,-114.345"/>
<polygon fill="none" stroke="black" points="249.12,-110.839 238.773,-113.118 248.283,-117.789 249.12,-110.839"/>
</g>
<!-- \\App\\Http\\Controllers\\HashController -->
<g id="node3" class="node"><title>\\App\\Http\\Controllers\\HashController</title>
<polygon fill="none" stroke="black" points="613.276,-156 502.276,-156 502.276,-120 613.276,-120 613.276,-156"/>
<text text-anchor="middle" x="557.776" y="-135.2" font-family="Courier,monospace" font-size="11.00">HashController</text>
</g>
<!-- \\App\\Http\\Controllers\\HashController&#45;&gt;\\App\\Http\\Controllers\\Controller -->
<g id="edge3" class="edge"><title>\\App\\Http\\Controllers\\HashController&#45;&gt;\\App\\Http\\Controllers\\Controller</title>
<path fill="none" stroke="black" d="M501.93,-135.708C482.196,-134.883 460.023,-133.957 440.6,-133.145"/>
<polygon fill="none" stroke="black" points="440.563,-129.64 430.425,-132.72 440.27,-136.634 440.563,-129.64"/>
</g>
</g>
</svg>
